# xmcd
#
# Track frame offsets: 
#        150
#        10208
#        22584
#        35909
#        49489
#        62375
#        76093
#        89582
#        103192
#        116350
#        130796
#        143408
#        157933
#        171219
#        184736
#        199398
#        213827
#        227931
#        241572
#        256811
#        269792
#        282980
#        295730
#        308143
#        322663
#
# Disc length: 4492 seconds
#
# Revision: 1
# Processed by: cddbd v1.5.2PL0 Copyright (c) Steve Scherf et al.
# Submitted via: ExactAudioCopy v1.0b1
#
DISCID=53118a19
DTITLE=Little Walter - The Complete Chess Masters 1950-1967 [CD1]
DYEAR=2009
DGENRE=Blues
TTITLE0=Evans Shuffle
TTITLE1=Juke
TTITLE2=Juke (alt)
TTITLE3=Can't Hold Out Much Longer
TTITLE4=Can't Hold Out Much Longer (alt)
TTITLE5=Blue Midnight (alt)
TTITLE6=Blue Midnight
TTITLE7=Boogie
TTITLE8=Mean Old World
TTITLE9=Sad Hours
TTITLE10=Fast Boogie
TTITLE11=Fast Boogie (alt 1)
TTITLE12=Fast Boogie (alt 2)
TTITLE13=Fast Boogie (alt 3)
TTITLE14=Don't Need No Horse
TTITLE15=Driftin'
TTITLE16=Driftin' (alt)
TTITLE17=Don't Have To Hunt No More
TTITLE18=Crazy Legs
TTITLE19=Tonight With A Fool
TTITLE20=Off The Wall (alt)
TTITLE21=Off The Wall
TTITLE22=Tell Me Mama
TTITLE23=Quarter To Twelve
TTITLE24=That's It
EXTD=
EXTT0=
EXTT1=
EXTT2=
EXTT3=
EXTT4=
EXTT5=
EXTT6=
EXTT7=
EXTT8=
EXTT9=
EXTT10=
EXTT11=
EXTT12=
EXTT13=
EXTT14=
EXTT15=
EXTT16=
EXTT17=
EXTT18=
EXTT19=
EXTT20=
EXTT21=
EXTT22=
EXTT23=
EXTT24=
PLAYORDER=
